<svg width="242" height="33" viewBox="0 0 242 33" fill="none" xmlns="http://www.w3.org/2000/svg">
<path d="M23.1996 7.7037H1.44997C1.06542 7.7037 0.69661 7.85589 0.424687 8.12677C0.152765 8.39766 0 8.76506 0 9.14815V14.9259C0.00454522 17.9619 1.15783 20.8847 3.22981 23.1111H1.44997C1.06542 23.1111 0.69661 23.2633 0.424687 23.5342C0.152765 23.8051 0 24.1725 0 24.5556C0 24.9386 0.152765 25.306 0.424687 25.5769C0.69661 25.8478 1.06542 26 1.44997 26H22.7162C23.1008 26 23.4696 25.8478 23.7415 25.5769C24.0134 25.306 24.1662 24.9386 24.1662 24.5556C24.1662 24.1725 24.0134 23.8051 23.7415 23.5342C23.4696 23.2633 23.1008 23.1111 22.7162 23.1111H20.9364C21.9783 21.9902 22.7982 20.6834 23.353 19.2593C24.7363 19.2195 26.0495 18.6439 27.0136 17.655C27.9777 16.666 28.5167 15.3415 28.5161 13.963V13C28.5145 11.5958 27.9539 10.2496 26.9572 9.25671C25.9605 8.26381 24.6091 7.7053 23.1996 7.7037ZM21.2663 14.9259C21.2632 16.6244 20.7872 18.2887 19.8913 19.7338C18.9953 21.1788 17.7145 22.348 16.1914 23.1111H7.97485C6.45168 22.348 5.17089 21.1788 4.27494 19.7338C3.37899 18.2887 2.90301 16.6244 2.89995 14.9259V10.5926H21.2663V14.9259ZM25.6162 13.963C25.6157 14.4437 25.4708 14.9132 25.2001 15.3112C24.9294 15.7091 24.5454 16.0173 24.0973 16.1958C24.1434 15.7741 24.1664 15.3502 24.1662 14.9259V10.7948C24.597 10.9821 24.9636 11.2905 25.2211 11.6821C25.4786 12.0738 25.6159 12.5318 25.6162 13V13.963ZM5.79989 4.33333V1.44444C5.79989 1.06135 5.95265 0.693954 6.22458 0.423068C6.4965 0.152182 6.86531 0 7.24986 0C7.63442 0 8.00323 0.152182 8.27515 0.423068C8.54707 0.693954 8.69984 1.06135 8.69984 1.44444V4.33333C8.69984 4.71642 8.54707 5.08382 8.27515 5.35471C8.00323 5.6256 7.63442 5.77778 7.24986 5.77778C6.86531 5.77778 6.4965 5.6256 6.22458 5.35471C5.95265 5.08382 5.79989 4.71642 5.79989 4.33333ZM10.6331 4.33333V1.44444C10.6331 1.06135 10.7859 0.693954 11.0578 0.423068C11.3297 0.152182 11.6985 0 12.0831 0C12.4677 0 12.8365 0.152182 13.1084 0.423068C13.3803 0.693954 13.5331 1.06135 13.5331 1.44444V4.33333C13.5331 4.71642 13.3803 5.08382 13.1084 5.35471C12.8365 5.6256 12.4677 5.77778 12.0831 5.77778C11.6985 5.77778 11.3297 5.6256 11.0578 5.35471C10.7859 5.08382 10.6331 4.71642 10.6331 4.33333ZM15.4664 4.33333V1.44444C15.4664 1.06135 15.6191 0.693954 15.8911 0.423068C16.163 0.152182 16.5318 0 16.9163 0C17.3009 0 17.6697 0.152182 17.9416 0.423068C18.2136 0.693954 18.3663 1.06135 18.3663 1.44444V4.33333C18.3663 4.71642 18.2136 5.08382 17.9416 5.35471C17.6697 5.6256 17.3009 5.77778 16.9163 5.77778C16.5318 5.77778 16.163 5.6256 15.8911 5.35471C15.6191 5.08382 15.4664 4.71642 15.4664 4.33333Z" fill="#2C2B2B"/>
<path d="M47.4625 26H40.8084V6.36364H47.5967C49.5463 6.36364 51.221 6.75675 52.6209 7.54297C54.0271 8.3228 55.1074 9.4446 55.8616 10.9084C56.6159 12.3722 56.993 14.1236 56.993 16.1626C56.993 18.2081 56.6127 19.9659 55.8521 21.4361C55.0978 22.9062 54.0079 24.0344 52.5825 24.8207C51.1635 25.6069 49.4568 26 47.4625 26ZM44.3655 22.9222H47.2899C48.6578 22.9222 49.7988 22.6729 50.7128 22.1744C51.6269 21.6694 52.3141 20.9183 52.7743 19.9212C53.2345 18.9176 53.4646 17.6648 53.4646 16.1626C53.4646 14.6605 53.2345 13.4141 52.7743 12.4233C52.3141 11.4261 51.6333 10.6815 50.732 10.1893C49.8371 9.6907 48.7249 9.44141 47.3954 9.44141H44.3655V22.9222ZM66.7393 26.2876C65.2627 26.2876 63.9875 25.9808 62.9137 25.3672C61.8462 24.7472 61.0248 23.8714 60.4495 22.7401C59.8742 21.6023 59.5866 20.2631 59.5866 18.7227C59.5866 17.2077 59.8742 15.8782 60.4495 14.734C61.0312 13.5835 61.843 12.6886 62.8849 12.0494C63.9268 11.4038 65.1509 11.081 66.5571 11.081C67.4648 11.081 68.3213 11.228 69.1267 11.522C69.9385 11.8097 70.6544 12.2571 71.2745 12.8643C71.9009 13.4716 72.3931 14.245 72.751 15.1847C73.109 16.1179 73.288 17.2301 73.288 18.5213V19.5856H61.2166V17.2461H69.9609C69.9545 16.5813 69.8107 15.9901 69.5294 15.4723C69.2482 14.9482 68.8551 14.5359 68.3501 14.2354C67.8515 13.935 67.2698 13.7848 66.6051 13.7848C65.8956 13.7848 65.2723 13.9574 64.7354 14.3026C64.1985 14.6413 63.7798 15.0888 63.4794 15.6449C63.1853 16.1946 63.0351 16.7987 63.0287 17.457V19.4993C63.0287 20.3558 63.1853 21.0909 63.4985 21.7045C63.8117 22.3118 64.2496 22.7784 64.8121 23.1044C65.3746 23.424 66.033 23.5838 66.7872 23.5838C67.2922 23.5838 67.7492 23.5135 68.1583 23.3729C68.5674 23.2259 68.9222 23.0117 69.2226 22.7305C69.523 22.4492 69.75 22.1009 69.9034 21.6854L73.1441 22.0497C72.9396 22.9062 72.5497 23.6541 71.9744 24.2933C71.4055 24.9261 70.6768 25.4183 69.7883 25.7699C68.8998 26.1151 67.8835 26.2876 66.7393 26.2876ZM79.6952 6.36364V26H76.2243V6.36364H79.6952ZM83.2643 26V11.2727H86.7352V26H83.2643ZM83.6766 9.33594L85.8244 4.95419H89.2185L86.275 9.33594H83.6766ZM96.7284 26.2876C95.2582 26.2876 93.9958 25.9648 92.9411 25.3192C91.8928 24.6737 91.0842 23.782 90.5153 22.6442C89.9528 21.5 89.6716 20.1832 89.6716 18.6939C89.6716 17.1982 89.9592 15.8782 90.5345 14.734C91.1098 13.5835 91.9216 12.6886 92.9699 12.0494C94.0245 11.4038 95.271 11.081 96.7092 11.081C97.9045 11.081 98.9624 11.3015 99.8829 11.7425C100.81 12.1772 101.548 12.794 102.098 13.593C102.647 14.3857 102.961 15.3125 103.037 16.3736H99.7199C99.5856 15.6641 99.266 15.0728 98.7611 14.5998C98.2625 14.1204 97.5945 13.8807 96.7571 13.8807C96.0476 13.8807 95.4244 14.0724 94.8875 14.456C94.3505 14.8331 93.9319 15.3764 93.6314 16.0859C93.3374 16.7955 93.1904 17.6456 93.1904 18.6364C93.1904 19.6399 93.3374 20.5028 93.6314 21.2251C93.9255 21.9411 94.3378 22.494 94.8683 22.8839C95.4052 23.2674 96.0348 23.4592 96.7571 23.4592C97.2685 23.4592 97.7255 23.3633 98.1282 23.1715C98.5373 22.9734 98.8793 22.6889 99.1542 22.3182C99.429 21.9474 99.6176 21.4968 99.7199 20.9663H103.037C102.954 22.0082 102.647 22.9318 102.117 23.7372C101.586 24.5362 100.864 25.1626 99.95 25.6165C99.0359 26.0639 97.962 26.2876 96.7284 26.2876ZM105.887 26V11.2727H109.358V26H105.887ZM107.632 9.18253C107.083 9.18253 106.61 9.00036 106.213 8.63601C105.817 8.26527 105.619 7.82102 105.619 7.30327C105.619 6.77912 105.817 6.33487 106.213 5.97052C106.61 5.59979 107.083 5.41442 107.632 5.41442C108.189 5.41442 108.662 5.59979 109.051 5.97052C109.448 6.33487 109.646 6.77912 109.646 7.30327C109.646 7.82102 109.448 8.26527 109.051 8.63601C108.662 9.00036 108.189 9.18253 107.632 9.18253ZM117.165 26.2972C116.232 26.2972 115.392 26.131 114.644 25.7987C113.902 25.4599 113.314 24.9613 112.879 24.3029C112.451 23.6445 112.237 22.8327 112.237 21.8675C112.237 21.0366 112.39 20.3494 112.697 19.8061C113.004 19.2628 113.423 18.8281 113.953 18.5021C114.484 18.1761 115.082 17.93 115.746 17.7638C116.417 17.5913 117.111 17.4666 117.827 17.3899C118.69 17.3004 119.39 17.2205 119.927 17.1502C120.464 17.0735 120.854 16.9585 121.096 16.805C121.346 16.6452 121.47 16.3991 121.47 16.0668V16.0092C121.47 15.2869 121.256 14.7276 120.828 14.3313C120.4 13.935 119.783 13.7369 118.977 13.7369C118.127 13.7369 117.453 13.9222 116.954 14.293C116.462 14.6637 116.13 15.1016 115.957 15.6065L112.716 15.1463C112.972 14.2514 113.394 13.5036 113.982 12.9027C114.57 12.2955 115.289 11.8416 116.139 11.5412C116.99 11.2344 117.929 11.081 118.958 11.081C119.668 11.081 120.374 11.1641 121.077 11.3303C121.78 11.4964 122.423 11.7713 123.004 12.1548C123.586 12.532 124.053 13.0465 124.404 13.6985C124.762 14.3505 124.941 15.1655 124.941 16.1435V26H121.605V23.9769H121.49C121.279 24.386 120.981 24.7695 120.598 25.1275C120.221 25.479 119.745 25.7635 119.169 25.9808C118.6 26.1918 117.932 26.2972 117.165 26.2972ZM118.067 23.7468C118.763 23.7468 119.367 23.6094 119.879 23.3345C120.39 23.0533 120.783 22.6825 121.058 22.2223C121.339 21.7621 121.48 21.2603 121.48 20.717V18.9815C121.371 19.071 121.186 19.1541 120.924 19.2308C120.668 19.3075 120.381 19.3746 120.061 19.4322C119.741 19.4897 119.425 19.5408 119.112 19.5856C118.799 19.6303 118.527 19.6687 118.297 19.7006C117.779 19.771 117.316 19.886 116.906 20.0458C116.497 20.2056 116.175 20.4293 115.938 20.717C115.702 20.9982 115.583 21.3626 115.583 21.81C115.583 22.4492 115.817 22.9318 116.283 23.2578C116.75 23.5838 117.344 23.7468 118.067 23.7468ZM140.071 15.1655L136.907 15.5107C136.818 15.1911 136.661 14.8906 136.437 14.6094C136.22 14.3281 135.926 14.1012 135.555 13.9286C135.185 13.756 134.731 13.6697 134.194 13.6697C133.471 13.6697 132.864 13.8263 132.372 14.1396C131.886 14.4528 131.647 14.8587 131.653 15.3572C131.647 15.7855 131.803 16.1339 132.123 16.4023C132.449 16.6708 132.986 16.8913 133.734 17.0639L136.246 17.6009C137.639 17.9013 138.675 18.3775 139.352 19.0295C140.036 19.6815 140.381 20.5348 140.388 21.5895C140.381 22.5163 140.11 23.3345 139.573 24.044C139.042 24.7472 138.304 25.2969 137.358 25.6932C136.412 26.0895 135.325 26.2876 134.098 26.2876C132.295 26.2876 130.844 25.9105 129.745 25.1562C128.645 24.3956 127.99 23.3377 127.779 21.9826L131.164 21.6566C131.317 22.3214 131.643 22.8232 132.142 23.1619C132.64 23.5007 133.289 23.6701 134.088 23.6701C134.913 23.6701 135.574 23.5007 136.073 23.1619C136.578 22.8232 136.83 22.4045 136.83 21.9059C136.83 21.484 136.667 21.1357 136.341 20.8608C136.022 20.5859 135.523 20.375 134.846 20.228L132.334 19.7006C130.921 19.4066 129.876 18.9112 129.198 18.2145C128.521 17.5114 128.185 16.6229 128.192 15.549C128.185 14.6413 128.431 13.8551 128.93 13.1903C129.435 12.5192 130.135 12.0014 131.03 11.6371C131.931 11.2663 132.97 11.081 134.146 11.081C135.872 11.081 137.23 11.4485 138.221 12.1836C139.218 12.9187 139.835 13.9126 140.071 15.1655ZM154.185 26.2972C153.252 26.2972 152.411 26.131 151.663 25.7987C150.922 25.4599 150.334 24.9613 149.899 24.3029C149.471 23.6445 149.257 22.8327 149.257 21.8675C149.257 21.0366 149.41 20.3494 149.717 19.8061C150.024 19.2628 150.442 18.8281 150.973 18.5021C151.503 18.1761 152.101 17.93 152.766 17.7638C153.437 17.5913 154.131 17.4666 154.846 17.3899C155.709 17.3004 156.409 17.2205 156.946 17.1502C157.483 17.0735 157.873 16.9585 158.116 16.805C158.365 16.6452 158.49 16.3991 158.49 16.0668V16.0092C158.49 15.2869 158.276 14.7276 157.848 14.3313C157.419 13.935 156.802 13.7369 155.997 13.7369C155.147 13.7369 154.473 13.9222 153.974 14.293C153.482 14.6637 153.149 15.1016 152.977 15.6065L149.736 15.1463C149.992 14.2514 150.414 13.5036 151.002 12.9027C151.59 12.2955 152.309 11.8416 153.159 11.5412C154.009 11.2344 154.949 11.081 155.978 11.081C156.687 11.081 157.394 11.1641 158.097 11.3303C158.8 11.4964 159.442 11.7713 160.024 12.1548C160.606 12.532 161.072 13.0465 161.424 13.6985C161.782 14.3505 161.961 15.1655 161.961 16.1435V26H158.624V23.9769H158.509C158.298 24.386 158.001 24.7695 157.617 25.1275C157.24 25.479 156.764 25.7635 156.189 25.9808C155.62 26.1918 154.952 26.2972 154.185 26.2972ZM155.086 23.7468C155.783 23.7468 156.387 23.6094 156.898 23.3345C157.41 23.0533 157.803 22.6825 158.078 22.2223C158.359 21.7621 158.5 21.2603 158.5 20.717V18.9815C158.391 19.071 158.205 19.1541 157.943 19.2308C157.688 19.3075 157.4 19.3746 157.08 19.4322C156.761 19.4897 156.444 19.5408 156.131 19.5856C155.818 19.6303 155.546 19.6687 155.316 19.7006C154.799 19.771 154.335 19.886 153.926 20.0458C153.517 20.2056 153.194 20.4293 152.958 20.717C152.721 20.9982 152.603 21.3626 152.603 21.81C152.603 22.4492 152.836 22.9318 153.303 23.2578C153.769 23.5838 154.364 23.7468 155.086 23.7468ZM154.866 9.33594L151.922 4.95419H155.326L157.464 9.33594H154.866ZM172.302 6.36364H176.655L182.484 20.5923H182.714L188.544 6.36364H192.897V26H189.483V12.5096H189.301L183.874 25.9425H181.324L175.897 12.4808H175.715V26H172.302V6.36364ZM203.137 26.2876C201.66 26.2876 200.385 25.9808 199.311 25.3672C198.244 24.7472 197.422 23.8714 196.847 22.7401C196.272 21.6023 195.984 20.2631 195.984 18.7227C195.984 17.2077 196.272 15.8782 196.847 14.734C197.429 13.5835 198.24 12.6886 199.282 12.0494C200.324 11.4038 201.548 11.081 202.955 11.081C203.862 11.081 204.719 11.228 205.524 11.522C206.336 11.8097 207.052 12.2571 207.672 12.8643C208.298 13.4716 208.791 14.245 209.148 15.1847C209.506 16.1179 209.685 17.2301 209.685 18.5213V19.5856H197.614V17.2461H206.358C206.352 16.5813 206.208 15.9901 205.927 15.4723C205.646 14.9482 205.253 14.5359 204.748 14.2354C204.249 13.935 203.667 13.7848 203.003 13.7848C202.293 13.7848 201.67 13.9574 201.133 14.3026C200.596 14.6413 200.177 15.0888 199.877 15.6449C199.583 16.1946 199.433 16.7987 199.426 17.457V19.4993C199.426 20.3558 199.583 21.0909 199.896 21.7045C200.209 22.3118 200.647 22.7784 201.21 23.1044C201.772 23.424 202.43 23.5838 203.185 23.5838C203.69 23.5838 204.147 23.5135 204.556 23.3729C204.965 23.2259 205.32 23.0117 205.62 22.7305C205.92 22.4492 206.147 22.1009 206.301 21.6854L209.542 22.0497C209.337 22.9062 208.947 23.6541 208.372 24.2933C207.803 24.9261 207.074 25.4183 206.186 25.7699C205.297 26.1151 204.281 26.2876 203.137 26.2876ZM224.262 15.1655L221.098 15.5107C221.008 15.1911 220.852 14.8906 220.628 14.6094C220.41 14.3281 220.116 14.1012 219.746 13.9286C219.375 13.756 218.921 13.6697 218.384 13.6697C217.662 13.6697 217.055 13.8263 216.562 14.1396C216.077 14.4528 215.837 14.8587 215.843 15.3572C215.837 15.7855 215.994 16.1339 216.313 16.4023C216.639 16.6708 217.176 16.8913 217.924 17.0639L220.436 17.6009C221.83 17.9013 222.865 18.3775 223.543 19.0295C224.227 19.6815 224.572 20.5348 224.578 21.5895C224.572 22.5163 224.3 23.3345 223.763 24.044C223.233 24.7472 222.494 25.2969 221.548 25.6932C220.602 26.0895 219.516 26.2876 218.288 26.2876C216.486 26.2876 215.035 25.9105 213.935 25.1562C212.836 24.3956 212.181 23.3377 211.97 21.9826L215.354 21.6566C215.508 22.3214 215.834 22.8232 216.332 23.1619C216.831 23.5007 217.48 23.6701 218.279 23.6701C219.103 23.6701 219.765 23.5007 220.263 23.1619C220.768 22.8232 221.021 22.4045 221.021 21.9059C221.021 21.484 220.858 21.1357 220.532 20.8608C220.212 20.5859 219.714 20.375 219.036 20.228L216.524 19.7006C215.111 19.4066 214.066 18.9112 213.389 18.2145C212.711 17.5114 212.376 16.6229 212.382 15.549C212.376 14.6413 212.622 13.8551 213.12 13.1903C213.625 12.5192 214.325 12.0014 215.22 11.6371C216.121 11.2663 217.16 11.081 218.336 11.081C220.062 11.081 221.42 11.4485 222.411 12.1836C223.408 12.9187 224.025 13.9126 224.262 15.1655ZM231.678 26.2972C230.745 26.2972 229.904 26.131 229.156 25.7987C228.415 25.4599 227.827 24.9613 227.392 24.3029C226.964 23.6445 226.75 22.8327 226.75 21.8675C226.75 21.0366 226.903 20.3494 227.21 19.8061C227.517 19.2628 227.936 18.8281 228.466 18.5021C228.997 18.1761 229.594 17.93 230.259 17.7638C230.93 17.5913 231.624 17.4666 232.34 17.3899C233.203 17.3004 233.902 17.2205 234.439 17.1502C234.976 17.0735 235.366 16.9585 235.609 16.805C235.858 16.6452 235.983 16.3991 235.983 16.0668V16.0092C235.983 15.2869 235.769 14.7276 235.341 14.3313C234.912 13.935 234.296 13.7369 233.49 13.7369C232.64 13.7369 231.966 13.9222 231.467 14.293C230.975 14.6637 230.643 15.1016 230.47 15.6065L227.229 15.1463C227.485 14.2514 227.907 13.5036 228.495 12.9027C229.083 12.2955 229.802 11.8416 230.652 11.5412C231.502 11.2344 232.442 11.081 233.471 11.081C234.181 11.081 234.887 11.1641 235.59 11.3303C236.293 11.4964 236.936 11.7713 237.517 12.1548C238.099 12.532 238.565 13.0465 238.917 13.6985C239.275 14.3505 239.454 15.1655 239.454 16.1435V26H236.117V23.9769H236.002C235.791 24.386 235.494 24.7695 235.111 25.1275C234.733 25.479 234.257 25.7635 233.682 25.9808C233.113 26.1918 232.445 26.2972 231.678 26.2972ZM232.579 23.7468C233.276 23.7468 233.88 23.6094 234.391 23.3345C234.903 23.0533 235.296 22.6825 235.571 22.2223C235.852 21.7621 235.993 21.2603 235.993 20.717V18.9815C235.884 19.071 235.699 19.1541 235.437 19.2308C235.181 19.3075 234.893 19.3746 234.574 19.4322C234.254 19.4897 233.938 19.5408 233.624 19.5856C233.311 19.6303 233.04 19.6687 232.809 19.7006C232.292 19.771 231.828 19.886 231.419 20.0458C231.01 20.2056 230.687 20.4293 230.451 20.717C230.214 20.9982 230.096 21.3626 230.096 21.81C230.096 22.4492 230.329 22.9318 230.796 23.2578C231.263 23.5838 231.857 23.7468 232.579 23.7468Z" fill="#2C2B2B"/>
</svg>
